<svg xmlns="http://www.w3.org/2000/svg" viewBox="0 0 900 560" font-family="Helvetica, Arial, sans-serif">
  <rect width="900" height="560" fill="#0f172a"/>

  <rect x="0" y="0" width="220" height="560" fill="#1e293b"/>
  <text x="24" y="40" fill="#34d399" font-size="12" letter-spacing="2">FLOWFUNDS</text>
  <text x="24" y="65" fill="#ffffff" font-size="18" font-weight="600">Finance Hub</text>
  <text x="24" y="85" fill="#94a3b8" font-size="11">user@example.com</text>

  <rect x="16" y="115" width="188" height="30" rx="6" fill="#334155"/>
  <text x="30" y="135" fill="#ffffff" font-size="12">Dashboard</text>
  <text x="30" y="175" fill="#cbd5e1" font-size="12">Transactions</text>
  <text x="30" y="210" fill="#cbd5e1" font-size="12">Budgets</text>

  <rect x="16" y="500" width="188" height="34" rx="6" fill="none" stroke="#475569"/>
  <text x="110" y="522" text-anchor="middle" fill="#e2e8f0" font-size="12">Logout</text>

  <rect x="248" y="30" width="628" height="230" rx="14" fill="#1e293b" stroke="#334155"/>
  <text x="272" y="65" fill="#94a3b8" font-size="11">DASHBOARD</text>
  <text x="272" y="95" fill="#ffffff" font-size="22" font-weight="600">Welcome back</text>
  <text x="272" y="120" fill="#94a3b8" font-size="12" width="560">Transaction entry, budget tracking, and spending insights.</text>

  <text x="272" y="155" fill="#cbd5e1" font-size="12">Amount</text>
  <rect x="272" y="162" width="130" height="30" rx="6" fill="#0f172a" stroke="#475569"/>
  <text x="418" y="155" fill="#cbd5e1" font-size="12">Category</text>
  <rect x="418" y="162" width="130" height="30" rx="6" fill="#0f172a" stroke="#475569"/>
  <text x="564" y="155" fill="#cbd5e1" font-size="12">Date</text>
  <rect x="564" y="162" width="130" height="30" rx="6" fill="#0f172a" stroke="#475569"/>

  <text x="272" y="212" fill="#cbd5e1" font-size="12">Note</text>
  <rect x="272" y="219" width="422" height="30" rx="6" fill="#0f172a" stroke="#475569"/>
  <rect x="710" y="219" width="140" height="30" rx="8" fill="#10b981"/>
  <text x="780" y="239" text-anchor="middle" fill="#052e21" font-size="12" font-weight="600">Save transaction</text>

  <rect x="248" y="278" width="300" height="180" rx="14" fill="#1e293b" stroke="#334155"/>
  <text x="272" y="310" fill="#ffffff" font-size="14" font-weight="600">Next up</text>
  <text x="272" y="335" fill="#94a3b8" font-size="11">" Recent transactions list</text>
  <text x="272" y="355" fill="#94a3b8" font-size="11">" Budget summaries</text>
  <text x="272" y="375" fill="#94a3b8" font-size="11">" Spending charts (Recharts)</text>

  <rect x="576" y="278" width="300" height="180" rx="14" fill="#1e293b" stroke="#334155"/>
  <text x="600" y="310" fill="#ffffff" font-size="14" font-weight="600">Status</text>
  <text x="600" y="335" fill="#94a3b8" font-size="11">API / DB connection health</text>
</svg>
